# xmcd CD database file
#
# Track frame offsets:
#	150
#	21892
#	40519
#	72260
#	102342
#	138488
#	152360
#
# Disc length: 2714 seconds
#
# Revision: 0
# Processed by: cddbd v1.5.2PL0 Copyright (c) Steve Scherf et al.
# Submitted via: CDex 2.00
#
DISCID=500a9807
DTITLE=Julie Tippetts and Martin Archer - Vestigium CD B
DYEAR=2014
DGENRE=Jazz
TTITLE0=Shockwaves
TTITLE1=The Disappeared Mountain
TTITLE2=Too Cool
TTITLE3=Soliciting Crabs
TTITLE4=Clutching At Dust
TTITLE5=Whistling Song
TTITLE6=Stalking The Vision 
EXTD=YEAR: 2014
EXTT0=
EXTT1=
EXTT2=
EXTT3=
EXTT4=
EXTT5=
EXTT6=
PLAYORDER=
